<?xml version="1.0" encoding="UTF-8" standalone="no"?>
<svg
   width="60"
   height="21"
   viewBox="0 0 60 55"
   fill="none"
   version="1.1"
   id="svg9"
   sodipodi:docname="01.svg"
   inkscape:version="1.2.2 (b0a8486541, 2022-12-01)"
   xmlns:inkscape="http://www.inkscape.org/namespaces/inkscape"
   xmlns:sodipodi="http://sodipodi.sourceforge.net/DTD/sodipodi-0.dtd"
   xmlns="http://www.w3.org/2000/svg"
   xmlns:svg="http://www.w3.org/2000/svg">
  <defs
     id="defs13" />
  <sodipodi:namedview
     id="namedview11"
     pagecolor="#ffffff"
     bordercolor="#666666"
     borderopacity="1.0"
     inkscape:showpageshadow="2"
     inkscape:pageopacity="0.0"
     inkscape:pagecheckerboard="0"
     inkscape:deskcolor="#d1d1d1"
     showgrid="false"
     inkscape:zoom="6.6779661"
     inkscape:cx="-15.873096"
     inkscape:cy="32.120558"
     inkscape:window-width="2520"
     inkscape:window-height="1481"
     inkscape:window-x="2869"
     inkscape:window-y="24"
     inkscape:window-maximized="1"
     inkscape:current-layer="svg9" />
  <mask
     id="path-1-outside-1_285_102"
     maskUnits="userSpaceOnUse"
     x="-1"
     y="33"
     width="59"
     height="44"
     fill="#000000">
    <rect
       fill="#ffffff"
       x="-1"
       y="33"
       width="59"
       height="44"
       id="rect2" />
    <path
       d="m 24.6713,55.016 c 0,-9.152 -2.432,-15.68 -6.08,-15.68 -3.648,0 -6.08,6.528 -6.08,15.68 0,9.344 2.432,15.808 6.08,15.808 3.648,0 6.08,-6.464 6.08,-15.808 z m 9.92,0 c 0,11.52 -5.696,18.368 -16,18.368 -10.30405,0 -16.00005,-6.848 -16.00005,-18.368 0,-11.328 5.696,-18.24 16.00005,-18.24 10.304,0 16,6.912 16,18.24 z M 53.4763,37.16 v 32.256 l 0.64,3.584 h -10.944 l 0.704,-3.968 V 42.728 l -5.12,0.64 v -2.432 l 12.864,-3.776 z"
       id="path4" />
  </mask>
  <path
     d="m 27.6713,55.016 c 0,-4.7919 -0.6304,-9.1096 -1.8708,-12.3457 -1.1299,-2.9481 -3.3448,-6.3343 -7.2092,-6.3343 v 6 c 0.0019,0 0.002,1e-4 9e-4,0 -4e-4,-10e-5 -9e-4,-2e-4 -0.0014,-2e-4 -2e-4,-10e-5 -4e-4,-10e-5 -5e-4,-10e-5 -2e-4,-1e-4 -3e-4,-1e-4 -3e-4,-1e-4 0,0 10e-5,0 3e-4,1e-4 2e-4,0 6e-4,10e-5 0.001,3e-4 9e-4,2e-4 0.0024,7e-4 0.0045,0.0014 0.0041,0.0015 0.0116,0.0043 0.0225,0.0094 0.0427,0.0202 0.1542,0.0838 0.3209,0.2536 0.3541,0.3608 0.8135,1.0556 1.2588,2.2173 0.8876,2.3159 1.4733,5.8382 1.4733,10.1983 z m -9.08,-18.68 c -3.8645,0 -6.0794,3.3862 -7.2093,6.3343 -1.2404,3.2361 -1.87075,7.5538 -1.87075,12.3457 h 6.00005 c 0,-4.3601 0.5856,-7.8824 1.4732,-10.1983 0.4453,-1.1617 0.9047,-1.8565 1.2588,-2.2173 0.1667,-0.1698 0.2782,-0.2334 0.3209,-0.2536 0.0109,-0.0051 0.0184,-0.0079 0.0225,-0.0094 0.0022,-7e-4 0.0036,-0.0012 0.0045,-0.0014 5e-4,-2e-4 8e-4,-3e-4 10e-4,-3e-4 2e-4,-1e-4 3e-4,-1e-4 3e-4,-1e-4 0,0 -10e-5,0 -2e-4,1e-4 -2e-4,0 -4e-4,0 -6e-4,10e-5 -5e-4,0 -0.001,1e-4 -0.0014,2e-4 -0.0011,1e-4 -10e-4,0 0.001,0 z m -9.08005,18.68 c 0,4.8814 0.62885,9.2322 1.86965,12.479 1.1355,2.971 3.3529,6.329 7.2104,6.329 v -6 c -0.0016,0 -0.0027,0 -0.0033,-1e-4 -3e-4,0 -5e-4,0 -6e-4,0 -10e-5,0 -2e-4,0 -2e-4,0 0,0 0,0 10e-5,0 0,0 10e-5,0 10e-5,0 10e-5,0 0,0 -3e-4,-10e-5 -5e-4,-1e-4 -0.0027,-6e-4 -0.0072,-0.0022 -0.0045,-0.0015 -0.0121,-0.0044 -0.023,-0.0095 -0.0426,-0.02 -0.1529,-0.0824 -0.3178,-0.2497 -0.3506,-0.3559 -0.8088,-1.0456 -1.2535,-2.2094 -0.8872,-2.3212 -1.4743,-5.8744 -1.4743,-10.337 z m 9.08005,18.808 c 3.8574,0 6.0748,-3.358 7.2103,-6.329 1.2408,-3.2468 1.8697,-7.5976 1.8697,-12.479 h -6 c 0,4.4626 -0.5872,8.0158 -1.4744,10.337 -0.4447,1.1638 -0.9029,1.8535 -1.2535,2.2094 -0.1649,0.1673 -0.2752,0.2297 -0.3178,0.2497 -0.0109,0.0051 -0.0185,0.008 -0.023,0.0095 -0.0044,0.0016 -0.0067,0.0021 -0.0072,0.0022 -3e-4,10e-5 -4e-4,10e-5 -3e-4,10e-5 0,0 10e-5,0 10e-5,0 1e-4,0 1e-4,0 1e-4,0 0,0 -1e-4,0 -2e-4,0 -10e-5,0 -3e-4,0 -6e-4,0 -6e-4,1e-4 -0.0017,1e-4 -0.0032,1e-4 z m 13,-18.808 c 0,5.3044 -1.3132,9.1102 -3.4101,11.5474 -2.0398,2.3706 -5.1415,3.8206 -9.5899,3.8206 v 6 c 5.8555,0 10.7538,-1.974 14.1381,-5.9074 3.327,-3.8668 4.8619,-9.245 4.8619,-15.4606 z m -13,15.368 c -4.4485,0 -7.5502,-1.45 -9.58995,-3.8206 C 6.9044,64.1262 5.59125,60.3204 5.59125,55.016 h -6 c 0,6.2156 1.53485,11.5938 4.8619,15.4606 C 7.83744,74.41 12.7357,76.384 18.5913,76.384 Z M 5.59125,55.016 c 0,-5.1973 1.30777,-8.9741 3.40764,-11.4085 2.04471,-2.3704 5.15181,-3.8315 9.59241,-3.8315 v -6 c -5.8635,0 -10.75639,1.9949 -14.13569,5.9125 -3.32413,3.8536 -4.86436,9.1968 -4.86436,15.3275 z M 18.5913,39.776 c 4.4405,0 7.5476,1.4611 9.5923,3.8315 2.0999,2.4344 3.4077,6.2112 3.4077,11.4085 h 6 c 0,-6.1307 -1.5403,-11.4739 -4.8644,-15.3275 C 29.3476,35.7709 24.4547,33.776 18.5913,33.776 Z M 53.4762,37.16 h 3 v -3 h -3 z m 0,32.256 h -3 v 0.2658 l 0.0468,0.2616 z m 0.64,3.584 v 3 h 3.5832 L 57.0695,72.4726 Z M 43.1722,73 40.2184,72.4759 39.5931,76 h 3.5791 z m 0.7041,-3.968 2.9538,0.5241 0.0462,-0.26 V 69.032 Z m 0,-26.304 h 3 v -3.3983 l -3.3722,0.4215 z m -5.1201,0.64 h -3 v 3.3983 l 3.3722,-0.4215 z m 0,-2.432 -0.8449,-2.8786 -2.1551,0.6326 v 2.246 z M 51.6203,37.16 v -3 H 51.189 l -0.4137,0.1214 z m -1.1441,0 v 32.256 h 6 V 37.16 Z m 0.0468,32.7834 0.64,3.584 5.9065,-1.0548 -0.64,-3.584 z M 54.1162,70 h -10.944 v 6 h 10.944 z m -7.9901,3.5241 0.704,-3.968 -5.9077,-1.0482 -0.704,3.968 z M 46.8763,69.032 V 42.728 h -6 v 26.304 z m -3.3722,-29.2808 -5.12,0.64 0.7443,5.9536 5.12,-0.64 z m -1.7479,3.6168 v -2.432 h -6 v 2.432 z m -2.155,0.4465 12.864,-3.7759 -1.6899,-5.7572 -12.864,3.776 z M 51.6203,40.16 h 1.8559 v -6 h -1.8559 z"
     fill="#ffffff"
     mask="url(#path-1-outside-1_285_102)"
     id="path7"
     transform="translate(1.3235819,-26.914485)" />
</svg>
