<?xml version="1.0" encoding="UTF-8" standalone="no"?>
<svg
   width="70"
   height="25"
   viewBox="0 0 70 60"
   fill="none"
   version="1.1"
   id="svg9"
   sodipodi:docname="02.svg"
   inkscape:version="1.2.2 (b0a8486541, 2022-12-01)"
   xmlns:inkscape="http://www.inkscape.org/namespaces/inkscape"
   xmlns:sodipodi="http://sodipodi.sourceforge.net/DTD/sodipodi-0.dtd"
   xmlns="http://www.w3.org/2000/svg"
   xmlns:svg="http://www.w3.org/2000/svg">
  <defs
     id="defs13" />
  <sodipodi:namedview
     id="namedview11"
     pagecolor="#ffffff"
     bordercolor="#666666"
     borderopacity="1.0"
     inkscape:showpageshadow="2"
     inkscape:pageopacity="0.0"
     inkscape:pagecheckerboard="0"
     inkscape:deskcolor="#d1d1d1"
     showgrid="false"
     inkscape:zoom="6.6779661"
     inkscape:cx="16.172589"
     inkscape:cy="50.389594"
     inkscape:window-width="2520"
     inkscape:window-height="1481"
     inkscape:window-x="2869"
     inkscape:window-y="24"
     inkscape:window-maximized="1"
     inkscape:current-layer="svg9" />
  <mask
     id="path-1-outside-1_285_186"
     maskUnits="userSpaceOnUse"
     x="-1"
     y="33"
     width="70"
     height="44"
     fill="#000000">
    <rect
       fill="#ffffff"
       x="-1"
       y="33"
       width="70"
       height="44"
       id="rect2" />
    <path
       d="m 24.9525,55.016 c 0,-9.152 -2.432,-15.68 -6.08,-15.68 -3.648,0 -6.08,6.528 -6.08,15.68 0,9.344 2.432,15.808 6.08,15.808 3.648,0 6.08,-6.464 6.08,-15.808 z m 9.92,0 c 0,11.52 -5.696,18.368 -16,18.368 -10.304,0 -16,-6.848 -16,-18.368 0,-11.328 5.696,-18.24 16,-18.24 10.304,0 16,6.912 16,18.24 z m 16.709,-18.24 c 8.256,0 13.696,3.2 13.696,9.728 0,6.464 -7.232,11.968 -12.288,15.296 l -6.784,4.48 h 12.864 l 5.632,-2.56 V 73 h -25.28 l 0.064,-4.416 9.6,-9.344 c 4.096,-4.032 6.272,-8.384 6.272,-12.544 0,-3.648 -0.448,-7.36 -4.288,-7.36 h -0.128 c -3.2,0 -4.928,2.176 -5.952,8.128 l -5.632,-3.584 c 0.96,-2.496 4.608,-7.104 12.096,-7.104 z"
       id="path4" />
  </mask>
  <path
     d="m 27.9525,55.016 c 0,-4.7919 -0.6304,-9.1096 -1.8707,-12.3457 -1.13,-2.9481 -3.3448,-6.3343 -7.2093,-6.3343 v 6 c 0.0019,0 0.0021,1e-4 0.001,0 -5e-4,-10e-5 -0.001,-2e-4 -0.0014,-2e-4 -3e-4,-10e-5 -5e-4,-10e-5 -6e-4,-10e-5 -10e-5,-1e-4 -2e-4,-1e-4 -2e-4,-1e-4 0,0 10e-5,0 3e-4,1e-4 2e-4,0 5e-4,10e-5 9e-4,3e-4 9e-4,2e-4 0.0024,7e-4 0.0045,0.0014 0.0042,0.0015 0.0116,0.0043 0.0225,0.0094 0.0427,0.0202 0.1543,0.0838 0.3209,0.2536 0.3541,0.3608 0.8135,1.0556 1.2588,2.2173 0.8877,2.3159 1.4733,5.8382 1.4733,10.1983 z m -9.08,-18.68 c -3.8645,0 -6.0793,3.3862 -7.2093,6.3343 -1.2403,3.2361 -1.8707,7.5538 -1.8707,12.3457 h 6 c 0,-4.3601 0.5856,-7.8824 1.4733,-10.1983 0.4453,-1.1617 0.9047,-1.8565 1.2588,-2.2173 0.1666,-0.1698 0.2782,-0.2334 0.3209,-0.2536 0.0109,-0.0051 0.0183,-0.0079 0.0225,-0.0094 0.0021,-7e-4 0.0036,-0.0012 0.0045,-0.0014 4e-4,-2e-4 7e-4,-3e-4 9e-4,-3e-4 2e-4,-1e-4 3e-4,-1e-4 3e-4,-1e-4 0,0 -10e-5,0 -2e-4,1e-4 -10e-5,0 -3e-4,0 -6e-4,10e-5 -4e-4,0 -9e-4,1e-4 -0.0014,2e-4 -0.0011,1e-4 -9e-4,0 10e-4,0 z m -9.08,18.68 c 0,4.8814 0.6288,9.2322 1.8697,12.479 1.1355,2.971 3.3529,6.329 7.2103,6.329 v -6 c -0.0016,0 -0.0026,0 -0.0032,-1e-4 -3e-4,0 -5e-4,0 -6e-4,0 -10e-5,0 -2e-4,0 -2e-4,0 0,0 0,0 0,0 10e-5,0 10e-5,0 10e-5,0 10e-5,0 0,0 -3e-4,-10e-5 -4e-4,-1e-4 -0.0027,-6e-4 -0.0071,-0.0022 -0.0045,-0.0015 -0.0122,-0.0044 -0.0231,-0.0095 -0.0425,-0.02 -0.1529,-0.0824 -0.3177,-0.2497 -0.3506,-0.3559 -0.8088,-1.0456 -1.2536,-2.2094 -0.8871,-2.3212 -1.4743,-5.8744 -1.4743,-10.337 z m 9.08,18.808 c 3.8574,0 6.0748,-3.358 7.2103,-6.329 1.2409,-3.2468 1.8697,-7.5976 1.8697,-12.479 h -6 c 0,4.4626 -0.5872,8.0158 -1.4743,10.337 -0.4448,1.1638 -0.9029,1.8535 -1.2536,2.2094 -0.1648,0.1673 -0.2752,0.2297 -0.3177,0.2497 -0.0109,0.0051 -0.0186,0.008 -0.0231,0.0095 -0.0044,0.0016 -0.0067,0.0021 -0.0071,0.0022 -3e-4,10e-5 -4e-4,10e-5 -3e-4,10e-5 0,0 0,0 10e-5,0 0,0 0,0 0,0 0,0 -10e-5,0 -2e-4,0 -10e-5,0 -3e-4,0 -6e-4,0 -6e-4,1e-4 -0.0016,1e-4 -0.0032,1e-4 z m 13,-18.808 c 0,5.3044 -1.3131,9.1102 -3.4101,11.5474 -2.0397,2.3706 -5.1415,3.8206 -9.5899,3.8206 v 6 c 5.8556,0 10.7538,-1.974 14.1381,-5.9074 3.3271,-3.8668 4.8619,-9.245 4.8619,-15.4606 z m -13,15.368 c -4.4484,0 -7.5502,-1.45 -9.5899,-3.8206 C 7.18565,64.1262 5.8725,60.3204 5.8725,55.016 h -6 c 0,6.2156 1.53485,11.5938 4.8619,15.4606 3.38429,3.9334 8.2825,5.9074 14.1381,5.9074 z m -13,-15.368 c 0,-5.1973 1.30777,-8.9741 3.40764,-11.4085 2.04466,-2.3704 5.15176,-3.8315 9.59236,-3.8315 v -6 c -5.8634,0 -10.75634,1.9949 -14.13564,5.9125 -3.32413,3.8536 -4.86436,9.1968 -4.86436,15.3275 z m 13,-15.24 c 4.4406,0 7.5477,1.4611 9.5924,3.8315 2.0998,2.4344 3.4076,6.2112 3.4076,11.4085 h 6 c 0,-6.1307 -1.5402,-11.4739 -4.8644,-15.3275 C 29.6288,35.7709 24.7359,33.776 18.8725,33.776 Z m 34.117,22.024 -1.6494,-2.5059 -0.0038,0.0025 z m -6.784,4.48 -1.6532,-2.5034 -8.3337,5.5034 h 9.9869 z m 12.864,0 v 3 h 0.6498 l 0.5916,-0.2689 z m 5.632,-2.56 h 3 v -4.659 l -4.2414,1.9279 z m 0,9.28 v 3 h 3 V 73 Z M 39.4215,73 36.4218,72.9565 36.3777,76 h 3.0438 z m 0.064,-4.416 -2.0925,-2.1498 -0.8892,0.8655 -0.018,1.2408 z m 9.6,-9.344 2.0925,2.1498 0.006,-0.0059 0.0061,-0.0059 z m -4.096,-11.776 -1.6106,2.531 3.8029,2.42 0.7643,-4.4423 z m -5.632,-3.584 -2.8,-1.0769 -0.881,2.2904 2.0704,1.3175 z m 12.224,-4.104 c 3.8098,0 6.5588,0.7495 8.2646,1.9019 1.5469,1.0451 2.4314,2.5351 2.4314,4.8261 h 6 c 0,-4.237 -1.8355,-7.611 -5.0726,-9.7979 C 60.1267,34.6265 56.0277,33.776 51.5815,33.776 Z m 10.696,6.728 c 0,2.1045 -1.1982,4.387 -3.4356,6.7711 -2.1939,2.3378 -5.0286,4.3911 -7.5018,6.019 l 3.2988,5.0118 c 2.5828,-1.7001 5.8921,-4.0628 8.5782,-6.925 2.6426,-2.8159 5.0604,-6.5174 5.0604,-10.8769 z m -10.9412,12.7926 -6.784,4.48 3.3064,5.0068 6.784,-4.48 z M 46.2055,69.28 h 12.864 v -6 h -12.864 z m 14.1054,-0.2689 5.632,-2.56 -2.4828,-5.4622 -5.632,2.56 z M 61.7015,63.72 V 73 h 6 v -9.28 z m 3,6.28 h -25.28 v 6 h 25.28 z m -22.2803,3.0435 0.064,-4.416 -5.9994,-0.087 -0.064,4.416 z m -0.8432,-2.3097 9.6,-9.344 -4.185,-4.2996 -9.6,9.344 z m 9.6121,-9.3558 c 4.4453,-4.3759 7.1674,-9.451 7.1674,-14.682 h -6 c 0,3.089 -1.6299,6.7179 -5.3766,10.406 z m 7.1674,-14.682 c 0,-1.8157 -0.087,-4.2202 -0.9457,-6.2278 -0.4577,-1.07 -1.1851,-2.1549 -2.3387,-2.9577 -1.1687,-0.8132 -2.5416,-1.1745 -4.0036,-1.1745 v 6 c 0.2383,0 0.384,0.0287 0.4617,0.0509 0.0734,0.021 0.1039,0.041 0.1147,0.0486 0.0104,0.0072 0.115,0.0783 0.2493,0.3923 0.3253,0.7604 0.4623,2.0359 0.4623,3.8682 z m -7.288,-10.36 h -0.128 v 6 h 0.128 z m -0.128,0 c -2.4403,0 -4.6101,0.9096 -6.1974,3.0392 -1.3991,1.8772 -2.1804,4.4949 -2.7112,7.5801 l 5.9132,1.0174 c 0.4932,-2.8668 1.0879,-4.3131 1.6088,-5.0119 0.3327,-0.4464 0.6269,-0.6248 1.3866,-0.6248 z m -4.3414,8.597 -5.632,-3.584 -3.2212,5.062 5.632,3.584 z m -4.4426,0.0239 c 0.582,-1.5131 3.2275,-5.1809 9.296,-5.1809 v -6 c -8.9075,0 -13.558,5.5482 -14.896,9.0271 z m 9.296,-5.1809 h 0.128 v -6 h -0.128 z"
     fill="#ffffff"
     mask="url(#path-1-outside-1_285_186)"
     id="path7"
     transform="translate(1.3477157,-23.510152)" />
</svg>
