<?xml version="1.0" encoding="UTF-8" standalone="no"?>
<svg
   width="70"
   height="25"
   viewBox="0 0 70 60"
   fill="none"
   version="1.1"
   id="svg195"
   sodipodi:docname="03.svg"
   inkscape:version="1.2.2 (b0a8486541, 2022-12-01)"
   xmlns:inkscape="http://www.inkscape.org/namespaces/inkscape"
   xmlns:sodipodi="http://sodipodi.sourceforge.net/DTD/sodipodi-0.dtd"
   xmlns="http://www.w3.org/2000/svg"
   xmlns:svg="http://www.w3.org/2000/svg">
  <defs
     id="defs199" />
  <sodipodi:namedview
     id="namedview197"
     pagecolor="#ffffff"
     bordercolor="#666666"
     borderopacity="1.0"
     inkscape:showpageshadow="2"
     inkscape:pageopacity="0.0"
     inkscape:pagecheckerboard="0"
     inkscape:deskcolor="#d1d1d1"
     showgrid="false"
     inkscape:zoom="6.6779661"
     inkscape:cx="-2.5456853"
     inkscape:cy="37.96066"
     inkscape:window-width="2520"
     inkscape:window-height="1481"
     inkscape:window-x="2869"
     inkscape:window-y="24"
     inkscape:window-maximized="1"
     inkscape:current-layer="svg195" />
  <mask
     id="path-1-outside-1_285_457"
     maskUnits="userSpaceOnUse"
     x="-1"
     y="33"
     width="69"
     height="44"
     fill="#000000">
    <rect
       fill="#ffffff"
       x="-1"
       y="33"
       width="69"
       height="44"
       id="rect188" />
    <path
       d="m 24.9838,55.016 c 0,-9.152 -2.432,-15.68 -6.08,-15.68 -3.648,0 -6.08,6.528 -6.08,15.68 0,9.344 2.432,15.808 6.08,15.808 3.648,0 6.08,-6.464 6.08,-15.808 z m 9.92,0 c 0,11.52 -5.696,18.368 -16,18.368 -10.30405,0 -16.00005,-6.848 -16.00005,-18.368 0,-11.328 5.696,-18.24 16.00005,-18.24 10.304,0 16,6.912 16,18.24 z m 6.405,-8.576 v -9.28 h 21.44 v 5.888 l -11.584,10.944 c 8.064,-0.128 13.568,2.752 13.568,9.408 0,7.616 -7.168,9.984 -15.616,9.984 h -0.128 c -3.008,0 -7.232,-1.024 -9.92,-2.432 l 2.304,-5.632 c 3.136,4.928 5.44,5.504 7.232,5.504 h 0.128 c 3.84,0 6.08,-2.624 6.08,-6.592 0,-5.568 -2.944,-8 -8.256,-7.68 l -0.192,-2.304 10.88,-10.368 h -10.304 z"
       id="path190" />
  </mask>
  <path
     d="m 27.9838,55.016 c 0,-4.7919 -0.6304,-9.1096 -1.8708,-12.3457 -1.1299,-2.9481 -3.3448,-6.3343 -7.2092,-6.3343 v 6 c 0.0019,0 0.002,1e-4 9e-4,0 -4e-4,-10e-5 -9e-4,-2e-4 -0.0014,-2e-4 -2e-4,-10e-5 -4e-4,-10e-5 -5e-4,-10e-5 -2e-4,-1e-4 -3e-4,-1e-4 -3e-4,-1e-4 0,0 10e-5,0 3e-4,1e-4 2e-4,0 6e-4,10e-5 0.001,3e-4 9e-4,2e-4 0.0024,7e-4 0.0045,0.0014 0.0041,0.0015 0.0116,0.0043 0.0225,0.0094 0.0427,0.0202 0.1542,0.0838 0.3209,0.2536 0.3541,0.3608 0.8135,1.0556 1.2588,2.2173 0.8876,2.3159 1.4733,5.8382 1.4733,10.1983 z m -9.08,-18.68 c -3.8645,0 -6.0794,3.3862 -7.2093,6.3343 -1.2404,3.2361 -1.87075,7.5538 -1.87075,12.3457 h 6.00005 c 0,-4.3601 0.5856,-7.8824 1.4732,-10.1983 0.4453,-1.1617 0.9047,-1.8565 1.2588,-2.2173 0.1667,-0.1698 0.2782,-0.2334 0.3209,-0.2536 0.0109,-0.0051 0.0184,-0.0079 0.0225,-0.0094 0.0022,-7e-4 0.0036,-0.0012 0.0045,-0.0014 5e-4,-2e-4 8e-4,-3e-4 10e-4,-3e-4 2e-4,-1e-4 3e-4,-1e-4 3e-4,-1e-4 0,0 -10e-5,0 -2e-4,1e-4 -2e-4,0 -4e-4,0 -6e-4,10e-5 -5e-4,0 -0.001,1e-4 -0.0014,2e-4 -0.0011,1e-4 -10e-4,0 0.001,0 z m -9.08005,18.68 c 0,4.8814 0.62885,9.2322 1.86965,12.479 1.1355,2.971 3.3529,6.329 7.2104,6.329 v -6 c -0.0016,0 -0.0027,0 -0.0033,-1e-4 -3e-4,0 -5e-4,0 -6e-4,0 -10e-5,0 -2e-4,0 -2e-4,0 0,0 0,0 10e-5,0 0,0 10e-5,0 10e-5,0 10e-5,0 0,0 -3e-4,-10e-5 -5e-4,-1e-4 -0.0027,-6e-4 -0.0072,-0.0022 -0.0045,-0.0015 -0.0121,-0.0044 -0.023,-0.0095 -0.0426,-0.02 -0.1529,-0.0824 -0.3178,-0.2497 C 18.201,67.2065 17.7428,66.5168 17.2981,65.353 16.4109,63.0318 15.8238,59.4786 15.8238,55.016 Z m 9.08005,18.808 c 3.8574,0 6.0748,-3.358 7.2103,-6.329 1.2408,-3.2468 1.8697,-7.5976 1.8697,-12.479 h -6 c 0,4.4626 -0.5872,8.0158 -1.4744,10.337 -0.4447,1.1638 -0.9029,1.8535 -1.2535,2.2094 -0.1649,0.1673 -0.2752,0.2297 -0.3178,0.2497 -0.0109,0.0051 -0.0185,0.008 -0.023,0.0095 -0.0044,0.0016 -0.0067,0.0021 -0.0072,0.0022 -3e-4,10e-5 -4e-4,10e-5 -3e-4,10e-5 0,0 10e-5,0 10e-5,0 1e-4,0 1e-4,0 1e-4,0 0,0 -1e-4,0 -2e-4,0 -10e-5,0 -3e-4,0 -6e-4,0 -6e-4,1e-4 -0.0017,1e-4 -0.0032,1e-4 z m 13,-18.808 c 0,5.3044 -1.3132,9.1102 -3.4101,11.5474 -2.0398,2.3706 -5.1415,3.8206 -9.5899,3.8206 v 6 c 5.8555,0 10.7538,-1.974 14.1381,-5.9074 3.327,-3.8668 4.8619,-9.245 4.8619,-15.4606 z m -13,15.368 c -4.4485,0 -7.5502,-1.45 -9.58995,-3.8206 C 7.2169,64.1262 5.90375,60.3204 5.90375,55.016 h -5.9999998 c 0,6.2156 1.5348498,11.5938 4.8618998,15.4606 C 8.14994,74.41 13.0482,76.384 18.9038,76.384 Z M 5.90375,55.016 c 0,-5.1973 1.30777,-8.9741 3.40764,-11.4085 2.04471,-2.3704 5.15181,-3.8315 9.59241,-3.8315 v -6 c -5.8635,0 -10.75639,1.9949 -14.13569,5.9125 -3.32413,3.8536 -4.8643598,9.1968 -4.8643598,15.3275 z M 18.9038,39.776 c 4.4405,0 7.5476,1.4611 9.5923,3.8315 2.0999,2.4344 3.4077,6.2112 3.4077,11.4085 h 6 c 0,-6.1307 -1.5403,-11.4739 -4.8644,-15.3275 C 29.6601,35.7709 24.7672,33.776 18.9038,33.776 Z m 22.405,6.664 h -3 v 4.659 l 4.2414,-1.9279 z m 0,-9.28 v -3 h -3 v 3 z m 21.4399,0 h 3 v -3 h -3 z m 0,5.888 2.0603,2.1807 0.9397,-0.8878 V 43.048 Z m -11.584,10.944 -2.0602,-2.1807 -5.613,5.3029 7.7209,-0.1226 z m -12.096,16.96 -2.7766,-1.1359 -1.0336,2.5267 2.4182,1.2667 z m 2.304,-5.632 2.531,-1.6106 -3.1125,-4.8911 -2.1951,5.3658 z m 5.1841,-8.768 -2.9897,0.2491 0.2435,2.9218 2.9265,-0.1763 z m -0.1921,-2.304 -2.0696,-2.1718 -1.0392,0.9903 0.1192,1.4306 z M 57.2448,43.88 59.3144,46.0518 64.7416,40.88 h -7.4968 z m -10.304,0 v -3 h -0.6499 l -0.5916,0.2689 z m -2.632,2.56 v -9.28 h -6 v 9.28 z m -3,-6.28 h 21.4399 v -6 H 41.3088 Z m 18.4399,-3 v 5.888 h 6 V 37.16 Z m 0.9398,3.7073 -11.584,10.944 4.1205,4.3614 11.584,-10.944 z m -9.4761,16.1243 c 3.7439,-0.0594 6.4553,0.5998 8.1355,1.6823 1.4913,0.9608 2.3848,2.3748 2.3848,4.7261 h 6 c 0,-4.3047 -1.8584,-7.6587 -5.1351,-9.7699 -3.0878,-1.9895 -7.1604,-2.7063 -11.4805,-2.6377 z M 61.7327,63.4 c 0,1.4148 -0.3265,2.428 -0.7996,3.1889 -0.4794,0.7709 -1.2133,1.4488 -2.2702,2.0217 -2.198,1.1917 -5.5083,1.7734 -9.5461,1.7734 v 6 c 4.4101,0 8.9078,-0.6023 12.4058,-2.4986 1.7911,-0.9711 3.3772,-2.3132 4.5058,-4.1283 1.1349,-1.8251 1.7043,-3.9639 1.7043,-6.3571 z m -12.6159,6.984 h -0.128 v 6 h 0.128 z m -0.128,0 c -2.5298,0 -6.2754,-0.9095 -8.528,-2.0895 l -2.7841,5.315 c 3.1234,1.636 7.8258,2.7745 11.3121,2.7745 z m -7.1434,1.7039 2.304,-5.632 -5.5533,-2.2718 -2.304,5.632 z m -3.0036,-5.1573 c 1.6999,2.6714 3.343,4.4382 5.0381,5.519 1.7914,1.1421 3.4149,1.3744 4.7249,1.3744 v -6 c -0.4821,0 -0.9066,-0.0557 -1.4992,-0.4336 -0.6889,-0.4392 -1.7658,-1.4244 -3.2019,-3.681 z m 9.763,6.8934 h 0.1279 v -6 h -0.1279 z m 0.1279,0 c 2.6399,0 5.017,-0.9258 6.7069,-2.7977 1.6547,-1.8329 2.3732,-4.263 2.3732,-6.7943 h -6 c 0,1.4367 -0.4016,2.3026 -0.8269,2.7737 -0.3901,0.4321 -1.053,0.8183 -2.2532,0.8183 z m 9.0801,-9.592 c 0,-3.2749 -0.8716,-6.2396 -3.1256,-8.2747 -2.228,-2.0116 -5.2254,-2.5857 -8.3108,-2.3999 l 0.3607,5.9892 c 2.2266,-0.1342 3.3572,0.3477 3.9292,0.8641 0.546,0.4929 1.1465,1.5282 1.1465,3.8213 z m -8.2664,-7.9291 -0.192,-2.304 -5.9793,0.4982 0.192,2.304 z m -1.112,0.1169 10.88,-10.368 -4.1393,-4.3436 -10.88,10.368 z M 57.2448,40.88 h -10.304 v 6 h 10.304 z m -11.5455,0.2689 -5.632,2.56 2.4829,5.4622 5.632,-2.56 z"
     fill="#ffffff"
     mask="url(#path-1-outside-1_285_457)"
     id="path193"
     transform="translate(1.1979695,-23.959391)" />
</svg>
