<?xml version="1.0" encoding="UTF-8" standalone="no"?>
<svg
   width="70"
   height="25"
   viewBox="0 0 70 60"
   fill="none"
   version="1.1"
   id="svg325"
   sodipodi:docname="04.svg"
   inkscape:version="1.2.2 (b0a8486541, 2022-12-01)"
   xmlns:inkscape="http://www.inkscape.org/namespaces/inkscape"
   xmlns:sodipodi="http://sodipodi.sourceforge.net/DTD/sodipodi-0.dtd"
   xmlns="http://www.w3.org/2000/svg"
   xmlns:svg="http://www.w3.org/2000/svg">
  <defs
     id="defs329" />
  <sodipodi:namedview
     id="namedview327"
     pagecolor="#ffffff"
     bordercolor="#666666"
     borderopacity="1.0"
     inkscape:showpageshadow="2"
     inkscape:pageopacity="0.0"
     inkscape:pagecheckerboard="0"
     inkscape:deskcolor="#d1d1d1"
     showgrid="false"
     inkscape:zoom="9.4440702"
     inkscape:cx="20.965537"
     inkscape:cy="53.313877"
     inkscape:window-width="2520"
     inkscape:window-height="1481"
     inkscape:window-x="2869"
     inkscape:window-y="24"
     inkscape:window-maximized="1"
     inkscape:current-layer="svg325" />
  <mask
     id="path-1-outside-1_285_1008"
     maskUnits="userSpaceOnUse"
     x="-1"
     y="33"
     width="70"
     height="44"
     fill="#000000">
    <rect
       fill="#ffffff"
       x="-1"
       y="33"
       width="70"
       height="44"
       id="rect318" />
    <path
       d="m 24.7338,55.016 c 0,-9.152 -2.432,-15.68 -6.08,-15.68 -3.648,0 -6.08,6.528 -6.08,15.68 0,9.344 2.432,15.808 6.08,15.808 3.648,0 6.08,-6.464 6.08,-15.808 z m 9.92,0 c 0,11.52 -5.696,18.368 -16,18.368 -10.30405,0 -16.00005,-6.848 -16.00005,-18.368 0,-11.328 5.696,-18.24 16.00005,-18.24 10.304,0 16,6.912 16,18.24 z M 61.6668,37.16 v 24.896 h 4.288 v 2.56 h -4.288 v 3.712 L 62.4988,73 h -10.944 l 0.832,-4.672 V 64.616 H 39.4588 V 60.84 l 16.256,-23.68 z m -19.648,24.896 h 10.368 V 46.312 L 42.0188,61.48 Z"
       id="path320" />
  </mask>
  <path
     d="m 27.7338,55.016 c 0,-4.7919 -0.6304,-9.1096 -1.8708,-12.3457 -1.1299,-2.9481 -3.3448,-6.3343 -7.2092,-6.3343 v 6 c 0.0019,0 0.002,1e-4 9e-4,0 -4e-4,-10e-5 -9e-4,-2e-4 -0.0014,-2e-4 -2e-4,-10e-5 -4e-4,-10e-5 -5e-4,-10e-5 -2e-4,-1e-4 -3e-4,-1e-4 -3e-4,-1e-4 0,0 10e-5,0 3e-4,1e-4 2e-4,0 6e-4,10e-5 0.001,3e-4 9e-4,2e-4 0.0024,7e-4 0.0045,0.0014 0.0041,0.0015 0.0116,0.0043 0.0225,0.0094 0.0427,0.0202 0.1542,0.0838 0.3209,0.2536 0.3541,0.3608 0.8135,1.0556 1.2588,2.2173 0.8876,2.3159 1.4733,5.8382 1.4733,10.1983 z m -9.08,-18.68 c -3.8645,0 -6.0794,3.3862 -7.2093,6.3343 -1.2404,3.2361 -1.87075,7.5538 -1.87075,12.3457 h 6.00005 c 0,-4.3601 0.5856,-7.8824 1.4732,-10.1983 0.4453,-1.1617 0.9047,-1.8565 1.2588,-2.2173 0.1667,-0.1698 0.2782,-0.2334 0.3209,-0.2536 0.0109,-0.0051 0.0184,-0.0079 0.0225,-0.0094 0.0022,-7e-4 0.0036,-0.0012 0.0045,-0.0014 5e-4,-2e-4 8e-4,-3e-4 10e-4,-3e-4 2e-4,-1e-4 3e-4,-1e-4 3e-4,-1e-4 0,0 -10e-5,0 -2e-4,1e-4 -2e-4,0 -4e-4,0 -6e-4,10e-5 -5e-4,0 -0.001,1e-4 -0.0014,2e-4 -0.0011,1e-4 -10e-4,0 0.001,0 z m -9.08005,18.68 c 0,4.8814 0.62885,9.2322 1.86965,12.479 1.1355,2.971 3.3529,6.329 7.2104,6.329 v -6 c -0.0016,0 -0.0027,0 -0.0033,-1e-4 -3e-4,0 -5e-4,0 -6e-4,0 -10e-5,0 -2e-4,0 -2e-4,0 0,0 0,0 10e-5,0 0,0 10e-5,0 10e-5,0 10e-5,0 0,0 -3e-4,-10e-5 -5e-4,-1e-4 -0.0027,-6e-4 -0.0072,-0.0022 -0.0045,-0.0015 -0.0121,-0.0044 -0.023,-0.0095 -0.0426,-0.02 -0.1529,-0.0824 -0.3178,-0.2497 C 17.951,67.2065 17.4928,66.5168 17.0481,65.353 16.1609,63.0318 15.5738,59.4786 15.5738,55.016 Z m 9.08005,18.808 c 3.8574,0 6.0748,-3.358 7.2103,-6.329 1.2408,-3.2468 1.8697,-7.5976 1.8697,-12.479 h -6 c 0,4.4626 -0.5872,8.0158 -1.4744,10.337 -0.4447,1.1638 -0.9029,1.8535 -1.2535,2.2094 -0.1649,0.1673 -0.2752,0.2297 -0.3178,0.2497 -0.0109,0.0051 -0.0185,0.008 -0.023,0.0095 -0.0044,0.0016 -0.0067,0.0021 -0.0072,0.0022 -3e-4,10e-5 -4e-4,10e-5 -3e-4,10e-5 0,0 10e-5,0 10e-5,0 1e-4,0 1e-4,0 1e-4,0 0,0 -1e-4,0 -2e-4,0 -10e-5,0 -3e-4,0 -6e-4,0 -6e-4,1e-4 -0.0017,1e-4 -0.0032,1e-4 z m 13,-18.808 c 0,5.3044 -1.3132,9.1102 -3.4101,11.5474 -2.0398,2.3706 -5.1415,3.8206 -9.5899,3.8206 v 6 c 5.8555,0 10.7538,-1.974 14.1381,-5.9074 3.327,-3.8668 4.8619,-9.245 4.8619,-15.4606 z m -13,15.368 c -4.4485,0 -7.5502,-1.45 -9.58995,-3.8206 C 6.9669,64.1262 5.65375,60.3204 5.65375,55.016 h -6 c 0,6.2156 1.53485,11.5938 4.8619,15.4606 C 7.89994,74.41 12.7982,76.384 18.6538,76.384 Z M 5.65375,55.016 c 0,-5.1973 1.30777,-8.9741 3.40764,-11.4085 2.04471,-2.3704 5.15181,-3.8315 9.59241,-3.8315 v -6 c -5.8635,0 -10.75639,1.9949 -14.13569,5.9125 -3.32413,3.8536 -4.86436,9.1968 -4.86436,15.3275 z M 18.6538,39.776 c 4.4405,0 7.5476,1.4611 9.5923,3.8315 2.0999,2.4344 3.4077,6.2112 3.4077,11.4085 h 6 c 0,-6.1307 -1.5403,-11.4739 -4.8644,-15.3275 C 29.4101,35.7709 24.5172,33.776 18.6538,33.776 Z m 43.013,-2.616 h 2.9999 v -3 h -2.9999 z m 0,24.896 h -3 v 3 h 3 z m 4.288,0 h 3 v -3 h -3 z m 0,2.56 v 3 h 3 v -3 z m -4.288,0 v -3 h -3 v 3 z m 0,3.712 h -3 v 0.265 l 0.0464,0.261 z M 62.4987,73 v 3 h 3.5815 L 65.4523,72.474 Z M 51.5547,73 48.6012,72.474 47.9733,76 h 3.5814 z m 0.832,-4.672 2.9536,0.526 0.0464,-0.261 v -0.265 z m 0,-3.712 h 3 v -3 h -3 z m -12.9279,0 h -3 v 3 h 3 z m 0,-3.776 -2.4733,-1.6979 -0.5267,0.7673 V 60.84 Z m 16.256,-23.68 v -3 h -1.5795 l -0.8938,1.3021 z M 42.0187,62.056 h -3 v 3 h 3 z m 10.368,0 v 3 h 3 v -3 z m 0,-15.744 h 3 v -9.7051 l -5.4766,8.0122 z M 42.0187,61.48 39.5421,59.7871 39.0187,60.5527 V 61.48 Z M 58.6668,37.16 v 24.896 h 5.9999 V 37.16 Z m 3,27.896 h 4.288 v -6 h -4.288 z m 1.288,-3 v 2.56 h 6 v -2.56 z m 3,-0.44 h -4.288 v 6 h 4.288 z m -7.288,3 v 3.712 h 5.9999 v -3.712 z m 0.0464,4.238 0.832,4.672 5.9071,-1.052 -0.832,-4.672 z M 62.4987,70 h -10.944 v 6 h 10.944 z m -7.9904,3.526 0.832,-4.672 -5.9071,-1.052 -0.832,4.672 z m 0.8784,-5.198 v -3.712 h -6 v 3.712 z m -3,-6.712 H 39.4588 v 6 h 12.9279 z m -9.9279,3 V 60.84 h -6 v 3.776 z m -0.5268,-2.0781 16.256,-23.68 -4.9465,-3.3958 -16.256,23.68 z M 55.7148,40.16 h 5.952 v -6 h -5.952 z M 42.0187,65.056 h 10.368 v -6 h -10.368 z m 13.368,-3 V 46.312 h -6 v 15.744 z m -5.4766,-17.4369 -10.368,15.168 4.9533,3.3858 10.368,-15.168 z M 39.0187,61.48 v 0.576 h 6 V 61.48 Z"
     fill="#ffffff"
     mask="url(#path-1-outside-1_285_1008)"
     id="path323"
     transform="translate(0.74120584,-24.353906)" />
</svg>
