<svg width="133" height="133" viewBox="0 0 133 133" fill="none" xmlns="http://www.w3.org/2000/svg">
<g clip-path="url(#clip0_30_248)">
<path d="M22.9584 89.5299L23.1697 88.5525C20.8176 88.044 18.6575 86.8803 16.9389 85.1958C15.2208 83.5118 14.0142 81.3761 13.4586 79.0354L9.2973 61.1827C8.52969 57.8894 9.10176 54.4261 10.8876 51.5547C12.6735 48.6832 15.5269 46.6388 18.8202 45.8712L54.5296 37.5478L54.5308 37.5475C60.704 36.1008 66.0514 32.2647 69.4 26.8807C72.5723 21.78 73.7054 15.6846 72.5984 9.80527L79.5994 8.17342L99.9539 95.4993L92.9529 97.1311C91.3463 91.3683 87.6349 86.402 82.5342 83.2297C77.1501 79.8811 70.6577 78.8047 64.4811 80.2366L64.4799 80.2368L53.4948 82.7973L51.9962 83.1466L52.924 84.3742L68.4447 104.908C69.6097 106.451 70.3708 108.261 70.659 110.173C70.9472 112.086 70.7534 114.039 70.0952 115.858C69.4369 117.676 68.3351 119.301 66.8897 120.585C65.4444 121.87 63.7013 122.773 61.8186 123.213C61.8184 123.213 61.8182 123.213 61.818 123.213L51.4887 125.621L23.7562 88.927L22.9584 89.5299ZM54.0069 117.065L54.3988 117.584L55.0317 117.436L60.1915 116.233C60.1916 116.233 60.1917 116.233 60.1917 116.233C60.9131 116.065 61.581 115.72 62.1346 115.228C62.6883 114.736 63.1102 114.113 63.3619 113.416C63.6136 112.72 63.6871 111.971 63.5757 111.239C63.4642 110.507 63.1715 109.814 62.724 109.223L44.7485 85.4457L44.3566 84.9273L43.7238 85.0748L33.4082 87.4793L31.9096 87.8285L32.8374 89.0561L54.0069 117.065ZM56.1567 44.5273L56.1565 44.5274L20.447 52.8508C19.0049 53.1869 17.7554 54.0822 16.9733 55.3396C16.1912 56.5971 15.9407 58.1137 16.2769 59.5558L20.4386 77.4105C20.7747 78.8527 21.67 80.1022 22.9274 80.8843C24.1849 81.6663 25.7015 81.9168 27.1436 81.5807L62.853 73.2573L62.8533 73.2572C66.884 72.3167 71.0623 72.194 75.1412 72.8963C79.2202 73.5985 83.1169 75.1116 86.601 77.3459L88.6736 78.675L88.1147 76.2771L77.4795 30.6493L76.9205 28.2514L75.6492 30.36C73.5121 33.9045 70.6859 36.9845 67.3379 39.4179C63.9898 41.8514 60.1878 43.5887 56.1567 44.5273ZM115.53 71.2397L104.635 64.4636L108.419 58.3791L119.314 65.1552L115.53 71.2397ZM103.735 37.516L97.6504 33.7318L104.296 23.0459L110.381 26.8301L103.735 37.516ZM104.302 44.7713L115.745 42.104L117.372 49.0836L105.929 51.7509L104.302 44.7713Z" fill="url(#paint0_linear_30_248)" stroke="#212121" stroke-width="2"/>
</g>
<defs>
<linearGradient id="paint0_linear_30_248" x1="-5.45069" y1="3.22372" x2="66" y2="99.73" gradientUnits="userSpaceOnUse">
<stop stop-color="#E7B51E"/>
<stop offset="0.392049" stop-color="#FFE79F"/>
<stop offset="0.75" stop-color="#E7B51E"/>
<stop offset="1" stop-color="#FFE79F"/>
</linearGradient>
<clipPath id="clip0_30_248">
<rect width="110" height="110" fill="white" transform="translate(0 25.7002) rotate(-13.1206)"/>
</clipPath>
</defs>
</svg>
