<svg width="110" height="110" viewBox="0 0 110 110" fill="none" xmlns="http://www.w3.org/2000/svg">
<g clip-path="url(#clip0_30_268)">
<path d="M85.9695 73.3349C82.8131 73.3275 79.6866 73.9454 76.7704 75.1529C73.8542 76.3605 71.2061 78.1337 68.9791 80.3703C62.5076 86.8789 54.8092 92.039 46.3298 95.5518C37.8503 99.0646 28.7582 100.86 19.5799 100.835H14.3091C13.292 100.836 12.2974 100.536 11.4513 99.9719C10.6051 99.4077 9.94534 98.6051 9.55564 97.6657C9.16594 96.7263 9.06381 95.6924 9.26216 94.6949C9.46052 93.6974 9.95044 92.7813 10.6699 92.0624L13.8461 88.8862C22.6591 88.4319 30.9893 84.7209 37.2211 78.4728L57.0486 58.6683C58.9833 59.1882 60.969 59.4956 62.9703 59.5849C63.3645 59.5849 63.7632 59.5849 64.1666 59.5849C71.464 59.5792 78.4617 56.6818 83.6274 51.5274L88.2107 46.9441C90.9018 44.248 93.0045 41.0231 94.3859 37.473C95.7672 33.923 96.3972 30.125 96.2361 26.3191C96.0832 22.4964 95.1271 18.7488 93.4301 15.32C91.7331 11.8913 89.3332 8.85823 86.3865 6.41825C80.8814 2.05799 73.9526 -0.101343 66.945 0.359393C59.9374 0.820129 53.3509 3.86807 48.4641 8.91159L45.5628 11.8174C42.0564 15.3113 39.5022 19.6441 38.1432 24.4038C36.7842 29.1636 36.6656 34.1918 37.7986 39.0103L17.7786 59.0303C11.5273 65.2599 7.8157 73.5915 7.3653 82.4053L4.18905 85.5816C2.18803 87.5824 0.825375 90.1317 0.273485 92.9071C-0.278406 95.6825 0.00526101 98.5592 1.0886 101.173C2.17194 103.788 4.00627 106.022 6.35955 107.593C8.71283 109.165 11.4793 110.003 14.3091 110.002H19.5799C29.9619 110.03 40.2464 107.999 49.8382 104.026C59.43 100.053 68.1385 94.2168 75.4599 86.8558C77.5383 84.7776 80.1863 83.3622 83.0689 82.7887C85.9516 82.2151 88.9396 82.5091 91.6553 83.6334C94.3709 84.7577 96.6923 86.6619 98.3259 89.1053C99.9595 91.5487 100.832 94.4216 100.833 97.3608V105.418C100.833 106.634 101.316 107.8 102.176 108.659C103.035 109.519 104.201 110.002 105.417 110.002C106.632 110.002 107.798 109.519 108.657 108.659C109.517 107.8 110 106.634 110 105.418V97.3608C109.991 90.9905 107.457 84.8837 102.952 80.3797C98.447 75.8757 92.3397 73.3422 85.9695 73.3349ZM52.0528 18.2799L54.9541 15.3741C58.7186 11.5913 63.8257 9.44961 69.1624 9.41575C73.2939 9.37548 77.3061 10.7995 80.4878 13.4353C82.4562 15.0608 84.0607 17.0822 85.1969 19.3681C86.3332 21.6541 86.9759 24.1535 87.0832 26.7041C87.1891 29.2411 86.7685 31.7725 85.8479 34.1389C84.9274 36.5053 83.5268 38.6555 81.7345 40.4541L77.1511 45.0374C75.3504 46.8382 73.1942 48.2441 70.82 49.1655C68.4458 50.0869 65.9057 50.5035 63.3616 50.3888C60.8174 50.2741 58.3251 49.6306 56.0435 48.4993C53.7618 47.368 51.7409 45.7738 50.1095 43.8183C47.2129 40.0773 45.8073 35.3948 46.1646 30.6771C46.5219 25.9594 48.6167 21.542 52.0436 18.2799H52.0528ZM24.2595 65.5112L41.8411 47.9249C42.2582 48.5208 42.5928 49.1624 43.0649 49.7262C44.5862 51.5233 46.3279 53.1217 48.2486 54.4837L30.7403 71.992C26.972 75.7721 22.1513 78.3278 16.9078 79.3253C17.9139 74.0862 20.4759 69.2721 24.2595 65.5112V65.5112Z" fill="url(#paint0_linear_30_268)" stroke="#212121" stroke-width="3"/>
</g>
<defs>
<linearGradient id="paint0_linear_30_268" x1="132" y1="-26.5295" x2="9.70229e-06" y2="98.3529" gradientUnits="userSpaceOnUse">
<stop stop-color="#E7B51E"/>
<stop offset="0.340654" stop-color="#FFE79F"/>
<stop offset="0.662504" stop-color="#E7B51E"/>
<stop offset="1" stop-color="#FFE79F"/>
</linearGradient>
<clipPath id="clip0_30_268">
<rect width="110" height="110" fill="white"/>
</clipPath>
</defs>
</svg>
