<svg width="110" height="110" viewBox="0 0 110 110" fill="none" xmlns="http://www.w3.org/2000/svg">
<path d="M10.8676 0.000843151C10.3723 0.00425577 9.89016 0.176442 9.48791 0.493593C9.08565 0.810744 8.78315 1.25719 8.62221 1.7712C8.46127 2.28521 8.44986 2.84138 8.58955 3.36281C8.72924 3.88425 9.01313 4.34518 9.40196 4.68188L18.6905 12.9326C18.9321 13.1673 19.2145 13.346 19.5208 13.4577C19.827 13.5695 20.1506 13.6121 20.4722 13.5828C20.7939 13.5536 21.1067 13.4533 21.392 13.2878C21.6774 13.1223 21.9292 12.8952 22.1323 12.62C22.3354 12.3449 22.4857 12.0275 22.574 11.6869C22.6623 11.3463 22.6868 10.9896 22.6461 10.6384C22.6054 10.2871 22.5002 9.94857 22.337 9.6431C22.1738 9.33763 21.9559 9.07158 21.6965 8.861L12.4126 0.605178C11.9787 0.210075 11.4314 -0.0039836 10.8676 0.000843151ZM99.0577 0.000843151C98.5196 0.0148693 98.0015 0.22781 97.5874 0.605178L88.3035 8.861C88.0441 9.07158 87.8262 9.33762 87.663 9.6431C87.4998 9.94857 87.3946 10.2871 87.3539 10.6384C87.3132 10.9897 87.3377 11.3463 87.426 11.6869C87.5143 12.0275 87.6646 12.3449 87.8677 12.62C88.0708 12.8952 88.3227 13.1223 88.608 13.2878C88.8933 13.4533 89.2061 13.5536 89.5278 13.5829C89.8494 13.6121 90.173 13.5695 90.4793 13.4577C90.7855 13.346 91.0679 13.1673 91.3095 12.9326L100.598 4.68188C100.992 4.34094 101.278 3.87252 101.416 3.34303C101.554 2.81354 101.537 2.24985 101.366 1.73189C101.196 1.21393 100.881 0.767984 100.467 0.45728C100.052 0.146576 99.5595 -0.0131168 99.0577 0.000843151ZM55.7422 5.13769C54.4354 5.10645 53.1436 5.16593 51.868 5.31182C36.5616 7.06248 23.9323 21.1888 23.9323 38.4683C23.9323 49.7684 28.3445 56.0799 32.3667 61.7813C36.3889 67.4826 40.0932 72.6821 40.591 83.9061C40.5986 84.0806 40.6221 84.2539 40.6611 84.4233V96.889C40.6611 104.099 46.0393 110 52.6102 110H57.3898C63.9607 110 69.3389 104.099 69.3389 96.889V94.2668C69.3434 93.9193 69.2849 93.5744 69.1668 93.2519C69.0487 92.9295 68.8734 92.636 68.6511 92.3885C68.4287 92.1411 68.1637 91.9446 67.8716 91.8105C67.5794 91.6763 67.2658 91.6073 66.9491 91.6073C66.6324 91.6073 66.3189 91.6763 66.0267 91.8105C65.7345 91.9446 65.4695 92.1411 65.2472 92.3885C65.0248 92.636 64.8495 92.9295 64.7314 93.2519C64.6133 93.5744 64.5548 93.9193 64.5593 94.2668V96.889C64.5593 101.264 61.3772 104.756 57.3898 104.756H52.6102C48.6228 104.756 45.4407 101.264 45.4407 96.889V83.778C45.44 83.4222 45.3733 83.0702 45.2447 82.7435C44.4951 70.8929 40.0815 64.1516 36.1475 58.5752C32.104 52.8438 28.7119 48.3556 28.7119 38.4683C28.7119 19.1591 47.4398 4.19953 65.8149 12.8455C75.9627 17.6209 81.993 28.724 81.2134 40.8395C80.6591 49.4649 77.257 53.7211 73.3438 59.2973C69.733 64.4425 65.9561 70.8347 64.956 81.1558H52.5402C52.2235 81.1509 51.9091 81.2151 51.6152 81.3447C51.3213 81.4743 51.0538 81.6666 50.8283 81.9106C50.6028 82.1546 50.4237 82.4453 50.3015 82.7659C50.1792 83.0865 50.1163 83.4305 50.1163 83.778C50.1163 84.1255 50.1792 84.4696 50.3015 84.7902C50.4237 85.1107 50.6028 85.4015 50.8283 85.6454C51.0538 85.8894 51.3213 86.0818 51.6152 86.2114C51.9091 86.3409 52.2235 86.4051 52.5402 86.4002H67.0191C67.6332 86.401 68.224 86.1423 68.669 85.6779C69.1139 85.2135 69.3789 84.5791 69.409 83.9061C69.8865 73.1526 73.3072 67.9444 77.1292 62.4983C80.9512 57.0521 85.3313 51.2871 85.979 41.2083C86.8962 26.955 79.6923 13.6715 67.6959 8.0262C63.6994 6.14571 59.6623 5.23139 55.7422 5.13769ZM2.42386 39.2007C2.10718 39.1957 1.79277 39.2599 1.4989 39.3895C1.20502 39.5191 0.937552 39.7114 0.712025 39.9554C0.486498 40.1994 0.307414 40.4901 0.18518 40.8107C0.0629461 41.1313 0 41.4753 0 41.8229C0 42.1704 0.0629461 42.5144 0.18518 42.835C0.307414 43.1556 0.486498 43.4463 0.712025 43.6903C0.937552 43.9343 1.20502 44.1266 1.4989 44.2562C1.79277 44.3858 2.10718 44.45 2.42386 44.4451H14.373C14.6897 44.45 15.0041 44.3858 15.2979 44.2562C15.5918 44.1266 15.8593 43.9343 16.0848 43.6903C16.3103 43.4463 16.4894 43.1556 16.6117 42.835C16.7339 42.5144 16.7968 42.1704 16.7968 41.8229C16.7968 41.4753 16.7339 41.1313 16.6117 40.8107C16.4894 40.4901 16.3103 40.1994 16.0848 39.9554C15.8593 39.7114 15.5918 39.5191 15.2979 39.3895C15.0041 39.2599 14.6897 39.1957 14.373 39.2007H2.42386ZM95.627 39.2007C95.3103 39.1957 94.9959 39.2599 94.7021 39.3895C94.4082 39.5191 94.1407 39.7114 93.9152 39.9554C93.6897 40.1994 93.5106 40.4901 93.3883 40.8107C93.2661 41.1313 93.2032 41.4753 93.2032 41.8229C93.2032 42.1704 93.2661 42.5144 93.3883 42.835C93.5106 43.1556 93.6897 43.4463 93.9152 43.6903C94.1407 43.9343 94.4082 44.1266 94.7021 44.2562C94.9959 44.3858 95.3103 44.45 95.627 44.4451H107.576C107.893 44.45 108.207 44.3858 108.501 44.2562C108.795 44.1266 109.062 43.9343 109.288 43.6903C109.514 43.4463 109.693 43.1556 109.815 42.835C109.937 42.5144 110 42.1704 110 41.8229C110 41.4753 109.937 41.1313 109.815 40.8107C109.693 40.4901 109.514 40.1994 109.288 39.9554C109.062 39.7114 108.795 39.5191 108.501 39.3895C108.207 39.2599 107.893 39.1957 107.576 39.2007H95.627ZM20.1608 70.1037C19.6221 70.1191 19.104 70.3339 18.6905 70.7131L9.40196 78.9638C9.15795 79.1807 8.95527 79.4482 8.80548 79.7511C8.6557 80.0539 8.56175 80.3861 8.529 80.7288C8.49625 81.0715 8.52534 81.4179 8.61461 81.7482C8.70388 82.0786 8.85158 82.3864 9.04928 82.6541C9.24698 82.9218 9.4908 83.1442 9.76683 83.3085C10.0428 83.4728 10.3457 83.5758 10.658 83.6117C10.9703 83.6476 11.286 83.6156 11.5871 83.5176C11.8881 83.4196 12.1686 83.2575 12.4126 83.0405L21.6965 74.7847C22.0903 74.444 22.3764 73.9761 22.5144 73.4471C22.6524 72.9181 22.6353 72.3549 22.4654 71.8372C22.2956 71.3195 21.9817 70.8736 21.5681 70.5624C21.1545 70.2513 20.6622 70.0908 20.1608 70.1037ZM89.7692 70.1037C89.2738 70.1071 88.7917 70.2793 88.3895 70.5964C87.9872 70.9136 87.6847 71.36 87.5238 71.874C87.3628 72.388 87.3514 72.9442 87.4911 73.4656C87.6308 73.9871 87.9147 74.448 88.3035 74.7847L97.5874 83.0405C98.0801 83.4786 98.7112 83.6839 99.3419 83.6114C99.9726 83.5389 100.551 83.1945 100.95 82.6539C101.35 82.1133 101.537 81.4208 101.471 80.7288C101.405 80.0368 101.091 79.4019 100.598 78.9638L91.3095 70.7131C90.8775 70.3173 90.332 70.1015 89.7692 70.1037Z" fill="url(#paint0_linear_30_250)"/>
<defs>
<linearGradient id="paint0_linear_30_250" x1="10.7038" y1="2.69649e-06" x2="108.608" y2="100.971" gradientUnits="userSpaceOnUse">
<stop stop-color="#E7B51E"/>
<stop offset="0.299204" stop-color="#FFE79F"/>
<stop offset="0.553755" stop-color="#F3CE5F"/>
<stop offset="0.794134" stop-color="#FFE79F"/>
</linearGradient>
</defs>
</svg>
