<?xml version="1.0" encoding="UTF-8"?>
<svg version="1.1" xmlns="http://www.w3.org/2000/svg" width="26" height="26" viewBox="0 0 256 256">
  <circle cx="128" cy="128" r="128" fill="#010101"/>
  <path d="M0 0 C0.77730469 0.08121094 1.55460937 0.16242188 2.35546875 0.24609375 C3.14566406 0.30925781 3.93585938 0.37242188 4.75 0.4375 C5.63751953 0.55931641 5.63751953 0.55931641 6.54296875 0.68359375 C5.26022795 4.06678996 3.79635908 7.15265604 1.96875 10.2734375 C1.46891602 11.13324219 0.96908203 11.99304688 0.45410156 12.87890625 C-0.33722168 14.23628906 -0.33722168 14.23628906 -1.14453125 15.62109375 C-2.76077993 18.4439473 -4.37098279 21.27017634 -5.97998047 24.09716797 C-6.88131289 25.67546809 -7.78787725 27.25081386 -8.70361328 28.82080078 C-14.13985999 38.19139543 -16.05035838 45.59715908 -13.9375 56.3203125 C-12.53036119 61.29878607 -10.47909254 64.29659477 -6.45703125 67.68359375 C-5.96203125 68.17859375 -5.96203125 68.17859375 -5.45703125 68.68359375 C-0.48192445 69.06629427 2.6066967 68.85447957 6.54296875 65.68359375 C8.61447564 63.04063669 9.45557226 61.17519902 10.04296875 57.87109375 C8.86836747 50.38301062 3.39889631 45.02957265 -2.140625 40.22265625 C-3.83203125 38.68359375 -3.83203125 38.68359375 -6.45703125 35.68359375 C-6.31139671 30.8605205 -3.55628506 26.90354613 -1.14453125 22.87109375 C-0.75330078 22.17822266 -0.36207031 21.48535156 0.04101562 20.77148438 C1.21875 18.7890625 1.21875 18.7890625 3.54296875 15.68359375 C7.54296875 15.68359375 7.54296875 15.68359375 9.91015625 17.51953125 C18.97629573 26.69864443 25.25060731 35.33662553 25.91796875 48.43359375 C25.6507188 60.0322415 19.69389448 72.53266802 11.54296875 80.68359375 C3.50349797 86.22484881 -3.54060209 89.87962108 -13.45703125 88.68359375 C-19.60788493 86.87196665 -24.11285947 83.11136165 -27.45703125 77.68359375 C-33.08388644 65.43191284 -30.63546259 52.97670973 -26.28271484 40.79882812 C-21.6891706 29.0310968 -14.35350031 18.20403478 -7.45703125 7.68359375 C-6.84154419 6.68960571 -6.84154419 6.68960571 -6.21362305 5.67553711 C-3.08211449 0.85750403 -3.08211449 0.85750403 0 0 Z" fill="#EEEEEE" transform="translate(130.45703125,83.31640625)"/>
  <path d="M0 0 C2.97 0 5.94 0 9 0 C8.67 0.99 8.34 1.98 8 3 C5.03 3 2.06 3 -1 3 C-0.67 2.01 -0.34 1.02 0 0 Z" fill="#D5D5D5" transform="translate(128,84)"/>
</svg>
