<?xml version="1.0" encoding="utf-8"?>
<!-- Generator: Adobe Illustrator 28.1.0, SVG Export Plug-In . SVG Version: 6.00 Build 0)  -->
<svg version="1.1" id="Layer_1" xmlns="http://www.w3.org/2000/svg" xmlns:xlink="http://www.w3.org/1999/xlink" x="0px" y="0px"
	 viewBox="0 0 595.3 533.9" style="enable-background:new 0 0 595.3 533.9;" xml:space="preserve">
<style type="text/css">
	.st0{fill:#F2F2F2;}
</style>
<g>
	<g>
		<path class="st0" d="M302,461.1c-3.3,0-6.6,0-9.8,0c-5.1-0.6-10.2-1.2-15.3-1.7c-24.1-2.3-46.7-9.3-68.3-20.1
			c-1.8-0.9-4.4-1-6.4-0.5c-20.1,5.6-40.1,11.4-60.2,17c-7.1,2-14.3,3.5-21.5,5.2c-0.5,0-1,0-1.5,0c-0.9-0.3-1.8-0.8-2.8-1
			c-6.4-1.7-10.4-5.7-12.1-12.1c-0.3-0.9-0.7-1.8-1-2.8c0-0.8,0-1.5,0-2.3c0.8-2.2,1.5-4.5,2.5-6.6c8.9-19.6,17.7-39.2,26.7-58.7
			c1.7-3.7,1.7-6.3-0.5-9.9c-15.1-24.6-24.3-51.2-27-80c-0.5-5.7-1.1-11.5-1.7-17.2c0-2.8,0-5.5,0-8.3c0.3-1.7,0.7-3.4,0.9-5.1
			c1.2-9.3,1.6-18.8,3.5-28c8.9-42.9,29.7-79,63-107.4C217,82.1,270.9,67.3,330.9,77.6c44.3,7.6,81.7,29,111,63.1
			c41.1,47.8,56.2,103.3,43.8,164.9c-12,60.1-46.7,104.5-100.7,133.4c-21.3,11.4-44.1,18.1-68.2,20.4C312,459.9,307,460.5,302,461.1
			z M149.8,418.8c2.3-0.5,3.6-0.8,4.9-1.1c15.9-4.3,31.8-8.7,47.6-13c5.1-1.4,9.9-0.8,14.5,1.8c30.5,17.3,63.1,24.2,98.1,20.3
			c21.6-2.4,42.1-8.4,60.5-19.7c58.9-36,86.2-88.6,80.4-157.7c-2-24.1-9.9-46.6-23.3-66.7c-38.1-56.6-91.2-81.7-159.3-73.4
			c-32,3.9-60.1,17.6-83.7,39.4c-40.9,37.9-58,84.9-51.6,140.2c3,25.8,12.6,49.4,27.7,70.6c4.6,6.5,5.2,13,1.8,20.2
			c-5.4,11.5-10.6,23.1-15.8,34.7C151.1,415.5,150.7,416.7,149.8,418.8z"/>
		<path class="st0" d="M349.5,355.9c-15.1,0-29.2-4.5-42.7-11c-36.8-17.7-66.9-43.3-89-77.8c-8-12.5-13.8-26.1-15.1-41.1
			c-1.4-16.6,5.3-33.9,22.5-43.9c6.8-4,13.9-3.1,20.2,1.6c10.2,7.7,14.9,18.7,18.5,30.4c3.3,10.7,1.1,19.9-6.3,28.3
			c-8.8,10-8.5,10.3-1.1,21.4c14.7,22,34.1,38.2,58.6,48.3c6.8,2.8,9.2,2.1,13.3-3.9c1.8-2.7,3.7-5.4,5.3-8.3
			c4.9-8.5,11.8-11.9,21.5-9.5c10.4,2.6,20.1,6.5,28.3,13.6c10,8.7,11.7,18.4,5.3,30C380.4,349.7,366.8,356.2,349.5,355.9z"/>
	</g>
</g>
</svg>
