<?xml version="1.0" encoding="utf-8"?>
<!-- Generator: Adobe Illustrator 28.1.0, SVG Export Plug-In . SVG Version: 6.00 Build 0)  -->
<svg version="1.1" id="Layer_1" xmlns="http://www.w3.org/2000/svg" xmlns:xlink="http://www.w3.org/1999/xlink" x="0px" y="0px"
	 viewBox="0 0 595.28 533.89" style="enable-background:new 0 0 595.28 533.89;" xml:space="preserve">
<style type="text/css">
	.st0{fill:#F2F2F2;}
</style>
<g>
	<g>
		<path class="st0" d="M492.8,445.43c-35.92,0-71.84,0-107.76,0c-0.42-0.72-0.8-1.47-1.27-2.16
			c-31.84-46.45-63.68-92.89-95.53-139.32c-0.52-0.76-1.17-1.44-1.89-2.31c-1.12,1.27-2.09,2.34-3.03,3.44
			c-25.69,29.92-51.4,59.83-77.07,89.77c-14.44,16.84-28.83,33.73-43.24,50.59c-10.61,0-21.21,0-31.82,0
			c0.94-1.23,1.82-2.52,2.83-3.7c42.34-49.32,84.7-98.64,127.05-147.95c3.75-4.36,7.46-8.75,11.17-13.09c-0.66-1-1.12-1.71-1.59-2.4
			C225.1,211.86,179.55,145.44,134,79.01c-1.01-1.48-1.87-3.05-2.8-4.58c35.92,0,71.84,0,107.76,0c0.28,0.53,0.52,1.08,0.86,1.57
			c30.34,44.26,60.69,88.51,91.03,132.76c0.45,0.66,0.79,1.39,1.27,2.25c39.51-46.01,78.4-91.3,117.3-136.59
			c10.61,0,21.21,0,31.82,0c-0.21,0.29-0.39,0.61-0.63,0.88c-37.47,43.65-74.95,87.29-112.42,130.93
			c-7.21,8.4-14.41,16.8-21.65,25.23c0.67,1.04,1.16,1.86,1.7,2.65c41.32,60.26,82.66,120.5,123.96,180.77
			C479.15,425.02,485.94,435.25,492.8,445.43z M174.47,98.48c0.98,1.52,1.53,2.44,2.14,3.31
			C250.57,207.8,324.54,313.8,398.45,419.84c1.34,1.92,2.72,2.6,5.02,2.58c13.98-0.11,27.95-0.05,41.93-0.06
			c1.03,0,2.07-0.12,3.64-0.21c-1.02-1.56-1.74-2.75-2.53-3.89c-56.37-80.79-112.74-161.58-169.11-242.36
			c-17.32-24.82-34.62-49.65-52-74.43c-0.87-1.24-2.4-2.86-3.64-2.87C206.24,98.41,190.71,98.48,174.47,98.48z"/>
	</g>
</g>
</svg>
